<?xml version="1.0" encoding="UTF-8"?>
<svg version="1.1" xmlns="http://www.w3.org/2000/svg" width="332" height="100">
<path d="M0 0 C3.62790312 7.25580625 2.15424523 17.99982414 2.125 25.875 C2.12234131 27.16897705 2.11968262 28.4629541 2.11694336 29.79614258 C2.081036 39.09827309 1.87754405 48.39065953 1.5625 57.6875 C1.52334473 58.88036621 1.48418945 60.07323242 1.44384766 61.30224609 C1.40179199 62.40262207 1.35973633 63.50299805 1.31640625 64.63671875 C1.27974854 65.60311279 1.24309082 66.56950684 1.20532227 67.56518555 C1 70 1 70 0 73 C2.475 72.505 2.475 72.505 5 72 C4.505 71.01 4.505 71.01 4 70 C3.90817917 67.8452107 3.88249538 65.68750282 3.88647461 63.53076172 C3.88632858 62.86722687 3.88618256 62.20369202 3.8860321 61.52005005 C3.88672969 59.32322947 3.89451486 57.1264933 3.90234375 54.9296875 C3.90420848 53.40796963 3.90563212 51.88625116 3.90663147 50.36453247 C3.91045233 46.35648953 3.92027896 42.34848274 3.93133545 38.3404541 C3.94155882 34.25171396 3.94613108 30.16296799 3.95117188 26.07421875 C3.9619016 18.04946256 3.97897287 10.02473578 4 2 C8.03184596 0.28422983 11.15640734 -0.32394447 15.5625 -0.375 C16.67753906 -0.40335937 17.79257812 -0.43171875 18.94140625 -0.4609375 C22.75066443 0.11312695 23.68050092 0.96626186 26 4 C26.4430542 7.1005249 26.4430542 7.1005249 26.36230469 10.78808594 C26.35313522 11.46166641 26.34396576 12.13524689 26.33451843 12.82923889 C26.29953616 15.04844187 26.23586686 17.26583491 26.171875 19.484375 C26.14196702 21.02562177 26.11385439 22.56690433 26.08746338 24.10821533 C26.01327552 28.15949133 25.91472795 32.20982151 25.81109619 36.26043701 C25.70960597 40.39598604 25.63116421 44.53196515 25.55078125 48.66796875 C25.3897405 56.77927467 25.20083422 64.88958168 25 73 C32.26 73 39.52 73 47 73 C46.30777344 70.66808594 46.30777344 70.66808594 45.6015625 68.2890625 C44.94264669 66.06772662 44.28379836 63.84637072 43.625 61.625 C43.27429443 60.44301025 42.92358887 59.26102051 42.56225586 58.04321289 C40.45524775 50.93464208 38.35980217 43.82283364 36.27734375 36.70703125 C35.8214712 35.15087323 35.36557939 33.59472085 34.90966797 32.03857422 C34.23650954 29.74074753 33.56402652 27.44273395 32.89361572 25.144104 C32.26536592 22.99011304 31.63484593 20.83679807 31.00390625 18.68359375 C30.64111572 17.44150146 30.2783252 16.19940918 29.90454102 14.91967773 C29.1175371 12.09966341 29.1175371 12.09966341 28 10 C27.960008 8.00039988 27.95653201 5.99952758 28 4 C30.20472976 3.26509008 32.40970011 2.53128993 34.6171875 1.8046875 C36.5107464 1.16522335 38.38459732 0.46746257 40.25 -0.25 C43.30742698 -1.08384372 44.96486157 -0.71295198 48 0 C52.18745422 12.21575641 56.02556049 24.50288897 59.57958984 36.91772461 C60.38604855 39.72597324 61.20659566 42.52988322 62.02734375 45.33398438 C62.54773499 47.142982 63.06729777 48.95221819 63.5859375 50.76171875 C63.95143204 52.00087288 63.95143204 52.00087288 64.3243103 53.26506042 C64.54519318 54.04730484 64.76607605 54.82954926 64.99365234 55.63549805 C65.18873383 56.31178757 65.38381531 56.98807709 65.58480835 57.68486023 C66 60 66 60 66 67 C61.38 68.65 56.76 70.3 52 72 C55.3203125 72.1953125 58.640625 72.390625 61.9609375 72.5859375 C65 73 65 73 67 75 C67.3125 77.5 67.3125 77.5 67 80 C63.24364375 82.5042375 60.31194683 82.27452147 55.96435547 82.24291992 C55.14622375 82.24481827 54.32809204 82.24671661 53.48516846 82.24867249 C50.77907755 82.25237942 48.07325457 82.2416788 45.3671875 82.23046875 C43.49057039 82.22927698 41.61395268 82.22882378 39.73733521 82.2290802 C35.80483262 82.22751557 31.87242109 82.21922623 27.93994141 82.20581055 C22.88774101 82.18879737 17.83564053 82.18499687 12.78341484 82.18575573 C8.90938353 82.18548446 5.03537425 82.18001052 1.16135025 82.17275429 C-0.70226754 82.16956249 -2.56588783 82.16759903 -4.42950821 82.16686058 C-7.02743074 82.16470373 -9.62524507 82.15597451 -12.22314453 82.14526367 C-13.38887497 82.14594345 -13.38887497 82.14594345 -14.57815552 82.14663696 C-19.88552407 82.11447593 -19.88552407 82.11447593 -21 81 C-21.23728814 74.47457627 -21.23728814 74.47457627 -20 72 C-20.33 71.34 -20.66 70.68 -21 70 C-21.09167789 67.90644981 -21.11750933 65.80990823 -21.11352539 63.71435547 C-21.11367142 63.07032776 -21.11381744 62.42630005 -21.1139679 61.76275635 C-21.1132704 59.63086598 -21.10548566 57.49906263 -21.09765625 55.3671875 C-21.09579149 53.89031014 -21.09436786 52.41343216 -21.09336853 50.93655396 C-21.08954792 47.04687801 -21.07972152 43.15723933 -21.06866455 39.26757812 C-21.05844064 35.29948429 -21.05386881 31.33138445 -21.04882812 27.36328125 C-21.03809885 19.57550384 -21.02102789 11.78775714 -21 4 C-20.01 4 -19.02 4 -18 4 C-17.55527344 3.53078125 -17.11054688 3.0615625 -16.65234375 2.578125 C-14.42043669 0.44646908 -12.58065388 0.25780337 -9.5625 -0.25 C-8.61503906 -0.42015625 -7.66757812 -0.5903125 -6.69140625 -0.765625 C-4.09854218 -0.99141868 -2.41244061 -0.94519313 0 0 Z " fill="#FDFDFD" transform="translate(30,7)"/>
<path d="M0 0 C3.62790312 7.25580625 2.15424523 17.99982414 2.125 25.875 C2.12234131 27.16897705 2.11968262 28.4629541 2.11694336 29.79614258 C2.081036 39.09827309 1.87754405 48.39065953 1.5625 57.6875 C1.52334473 58.88036621 1.48418945 60.07323242 1.44384766 61.30224609 C1.40179199 62.40262207 1.35973633 63.50299805 1.31640625 64.63671875 C1.27974854 65.60311279 1.24309082 66.56950684 1.20532227 67.56518555 C1 70 1 70 0 73 C1.32 73 2.64 73 4 73 C4 73.66 4 74.32 4 75 C-3.92 75 -11.84 75 -20 75 C-20.83115507 70.84422465 -21.12152747 67.55886914 -21.11352539 63.3737793 C-21.11367142 62.72931351 -21.11381744 62.08484772 -21.1139679 61.42085266 C-21.11327506 59.30527296 -21.10551231 57.18978294 -21.09765625 55.07421875 C-21.09578983 53.60162911 -21.09436699 52.12903885 -21.09336853 50.65644836 C-21.08956096 46.79147612 -21.07974579 42.9265418 -21.06866455 39.06158447 C-21.0584125 35.11332716 -21.05386279 31.16506368 -21.04882812 27.21679688 C-21.03812187 19.47784735 -21.02106669 11.738929 -21 4 C-20.01 4 -19.02 4 -18 4 C-17.55527344 3.53078125 -17.11054688 3.0615625 -16.65234375 2.578125 C-14.42043669 0.44646908 -12.58065388 0.25780337 -9.5625 -0.25 C-8.61503906 -0.42015625 -7.66757812 -0.5903125 -6.69140625 -0.765625 C-4.09854218 -0.99141868 -2.41244061 -0.94519313 0 0 Z " fill="#7ACACC" transform="translate(30,7)"/>
<path d="M0 0 C1.98 0 3.96 0 6 0 C6.99 1.98 7.98 3.96 9 6 C9.66 4.02 10.32 2.04 11 0 C13.31 0 15.62 0 18 0 C17.67 0.66 17.34 1.32 17 2 C16.92966231 3.87379605 16.9156978 5.75001102 16.9375 7.625 C16.94652344 8.62789062 16.95554688 9.63078125 16.96484375 10.6640625 C16.97644531 11.43492188 16.98804688 12.20578125 17 13 C19.475 13.495 19.475 13.495 22 14 C21.88617347 12.04098546 21.75858875 10.0827662 21.625 8.125 C21.55539063 7.03445312 21.48578125 5.94390625 21.4140625 4.8203125 C21.26746509 1.86953526 21.26746509 1.86953526 19 0 C23.62 0 28.24 0 33 0 C33 1.65 33 3.3 33 5 C32.34 5 31.68 5 31 5 C30.34 4.01 29.68 3.02 29 2 C28.34 2 27.68 2 27 2 C27 2.66 27 3.32 27 4 C27.99 4 28.98 4 30 4 C30 6.31 30 8.62 30 11 C29.34 11 28.68 11 28 11 C27.67 10.34 27.34 9.68 27 9 C26.67 10.65 26.34 12.3 26 14 C27.99983534 13.20882096 27.99983534 13.20882096 30 12 C30.33 11.01 30.66 10.02 31 9 C31.99 9.33 32.98 9.66 34 10 C33.34 11.98 32.68 13.96 32 16 C21.44 16 10.88 16 0 16 C0 13 0 13 1 11 C1.22467831 9.46331135 1.40796805 7.92031946 1.5625 6.375 C1.64628906 5.55773437 1.73007813 4.74046875 1.81640625 3.8984375 C1.87699219 3.27195312 1.93757812 2.64546875 2 2 C1.34 2 0.68 2 0 2 C0 1.34 0 0.68 0 0 Z M11 6 C10.34 8.64 9.68 11.28 9 14 C9.99 13.67 10.98 13.34 12 13 C12 10.69 12 8.38 12 6 C11.67 6 11.34 6 11 6 Z M3 7 C3.66 9.31 4.32 11.62 5 14 C6.33304698 11.10813214 6.33304698 11.10813214 5.0625 8.8125 C4.711875 8.214375 4.36125 7.61625 4 7 C3.67 7 3.34 7 3 7 Z " fill="#F4F7F5" transform="translate(170,22)"/>
<path d="M0 0 C0.99 0 1.98 0 3 0 C4.65 4.29 6.3 8.58 8 13 C9.32 13 10.64 13 12 13 C12.33 9.37 12.66 5.74 13 2 C12.01 1.67 11.02 1.34 10 1 C10 0.67 10 0.34 10 0 C11.95825873 -0.02694851 13.91662226 -0.04637218 15.875 -0.0625 C17.51082031 -0.07990234 17.51082031 -0.07990234 19.1796875 -0.09765625 C22 0 22 0 24 1 C23.773125 2.093125 23.54625 3.18625 23.3125 4.3125 C22.59853617 7.90531273 22.59853617 7.90531273 24.4375 9.9375 C24.953125 10.288125 25.46875 10.63875 26 11 C25.34 12.65 24.68 14.3 24 16 C13.44 16 2.88 16 -8 16 C-8 15.34 -8 14.68 -8 14 C-6.68 13.67 -5.36 13.34 -4 13 C-3.896875 12.34 -3.79375 11.68 -3.6875 11 C-2.80786436 7.16158991 -1.43030104 3.66903309 0 0 Z M17 1 C17 2.65 17 4.3 17 6 C17.66 5.67 18.32 5.34 19 5 C18.67 3.68 18.34 2.36 18 1 C17.67 1 17.34 1 17 1 Z M17 7 C17 8.98 17 10.96 17 13 C17.99 13.495 17.99 13.495 19 14 C19 12.02 19 10.04 19 8 C18.34 7.67 17.68 7.34 17 7 Z M-1 8 C-1 8.66 -1 9.32 -1 10 C-0.34 9.67 0.32 9.34 1 9 C0.34 8.67 -0.32 8.34 -1 8 Z M-1 11 C-1.33 11.66 -1.66 12.32 -2 13 C-0.68 13.33 0.64 13.66 2 14 C1.67 13.01 1.34 12.02 1 11 C0.34 11 -0.32 11 -1 11 Z " fill="#FAFBFA" transform="translate(143,22)"/>
<path d="M0 0 C0.625 3.0625 0.625 3.0625 1 6 C-0.32 6 -1.64 6 -3 6 C-3 4.68 -3 3.36 -3 2 C-3.66 2 -4.32 2 -5 2 C-5 5.63 -5 9.26 -5 13 C-3.35 13 -1.7 13 0 13 C3.12283677 6.05216076 3.12283677 6.05216076 6 -1 C6.99 -1 7.98 -1 9 -1 C9.33773438 -0.01257813 9.67546875 0.97484375 10.0234375 1.9921875 C10.47365533 3.28656377 10.92419284 4.58082887 11.375 5.875 C11.59671875 6.52597656 11.8184375 7.17695313 12.046875 7.84765625 C13.06962626 10.76550545 13.78556651 12.78556651 16 15 C12.79217914 15.95376567 9.91812604 16.11621181 6.578125 16.09765625 C5.55332031 16.09443359 4.52851563 16.09121094 3.47265625 16.08789062 C2.40917969 16.07951172 1.34570312 16.07113281 0.25 16.0625 C-0.82894531 16.05798828 -1.90789062 16.05347656 -3.01953125 16.04882812 C-5.67974383 16.03705727 -8.33984365 16.02061399 -11 16 C-10.67 15.01 -10.34 14.02 -10 13 C-9.9566427 11.47978483 -9.95992606 9.95780527 -10 8.4375 C-10.11076443 4.22152886 -10.11076443 4.22152886 -9 2 C-9.66 2 -10.32 2 -11 2 C-11.33 3.65 -11.66 5.3 -12 7 C-12.99 6.67 -13.98 6.34 -15 6 C-14.67 4.02 -14.34 2.04 -14 0 C-12.04235617 -0.19456705 -10.08384679 -0.38044247 -8.125 -0.5625 C-6.48917969 -0.71912109 -6.48917969 -0.71912109 -4.8203125 -0.87890625 C-2 -1 -2 -1 0 0 Z M6 7 C7 10 7 10 7 10 Z M7 11 C8 13 8 13 8 13 Z M4 12 C4.33 12.66 4.66 13.32 5 14 C5.66 13.67 6.32 13.34 7 13 C6.01 12.67 5.02 12.34 4 12 Z " fill="#FAFAFB" transform="translate(304,22)"/>
<path d="M0 0 C3.59213274 3.59213274 3.12760471 8.20716553 3.1328125 13.06640625 C3.13490723 14.26152832 3.13700195 15.45665039 3.13916016 16.68798828 C3.1344873 17.96657715 3.12981445 19.24516602 3.125 20.5625 C3.12161621 21.87976074 3.11823242 23.19702148 3.11474609 24.55419922 C3.07479252 33.91427034 2.90965391 43.26900515 2.625 52.625 C2.59422363 53.80908447 2.56344727 54.99316895 2.53173828 56.21313477 C2.49290527 57.31069092 2.45407227 58.40824707 2.4140625 59.5390625 C2.3826416 60.50021973 2.3512207 61.46137695 2.31884766 62.45166016 C1.99310005 65.05514674 1.31995829 66.75243193 0 69 C-2.06183633 69.08150744 -4.12461349 69.1394194 -6.1875 69.1875 C-7.91033203 69.23970703 -7.91033203 69.23970703 -9.66796875 69.29296875 C-13.27039199 68.97622579 -15.09366839 68.08533398 -18 66 C-17.505 65.01 -17.505 65.01 -17 64 C-11.72 64 -6.44 64 -1 64 C-0.67 42.88 -0.34 21.76 0 0 Z " fill="#87ACAA" transform="translate(29,12)"/>
<path d="M0 0 C0.33 0 0.66 0 1 0 C1 15.84 1 31.68 1 48 C9.04840347 47.55327888 9.04840347 47.55327888 17.09472656 47.0715332 C18.09987305 47.02343506 19.10501953 46.97533691 20.140625 46.92578125 C21.16704102 46.86817627 22.19345703 46.81057129 23.25097656 46.7512207 C26 47 26 47 30 50 C13.5 50 -3 50 -20 50 C-20 49.34 -20 48.68 -20 48 C-17.525 47.505 -17.525 47.505 -15 47 C-15.66 46.34 -16.32 45.68 -17 45 C-9.08 44.505 -9.08 44.505 -1 44 C-0.67 29.48 -0.34 14.96 0 0 Z " fill="#F8F9F8" transform="translate(54,32)"/>
<path d="M0 0 C0.33 0 0.66 0 1 0 C0.99555878 0.7553302 0.99111755 1.5106604 0.98654175 2.28887939 C0.94645289 9.41023953 0.91600946 16.53154487 0.89637566 23.65298843 C0.88594237 27.31411812 0.87179156 30.97515449 0.84912109 34.63623047 C0.82737636 38.16995917 0.81542795 41.70359816 0.81024551 45.23738861 C0.80475656 47.24042217 0.78914619 49.24341969 0.77340698 51.24639893 C0.77325592 52.46736267 0.77310486 53.68832642 0.77294922 54.94628906 C0.768508 56.02106506 0.76406677 57.09584106 0.75949097 58.20318604 C0.99918137 60.99048039 1.56004393 62.63129165 3 65 C3.99 65 4.98 65 6 65 C6 65.66 6 66.32 6 67 C11.94 66.67 17.88 66.34 24 66 C24 66.66 24 67.32 24 68 C16.08 68 8.16 68 0 68 C-0.76744637 64.16276813 -1.12622821 61.23387921 -1.12939453 57.40283203 C-1.13254669 56.30464142 -1.13569885 55.20645081 -1.13894653 54.07498169 C-1.1369223 52.89781586 -1.13489807 51.72065002 -1.1328125 50.5078125 C-1.13376923 49.28851044 -1.13472595 48.06920837 -1.13571167 46.81295776 C-1.13639165 44.23581897 -1.13455006 41.65867846 -1.13037109 39.08154297 C-1.12502955 35.14677049 -1.13031755 31.21211264 -1.13671875 27.27734375 C-1.13605776 24.77083308 -1.13477615 22.26432249 -1.1328125 19.7578125 C-1.13584885 17.99813644 -1.13584885 17.99813644 -1.13894653 16.20291138 C-1.12323043 10.69609947 -0.98657291 5.42272202 0 0 Z " fill="#A4D8D6" transform="translate(10,14)"/>
<path d="M0 0 C2.75 -0.25 2.75 -0.25 6 0 C8.375 2 8.375 2 10 4 C9.34 2.68 8.68 1.36 8 0 C10.64 0 13.28 0 16 0 C15.67 0.66 15.34 1.32 15 2 C14.34 2 13.68 2 13 2 C13 6.29 13 10.58 13 15 C9 14 9 14 6.75 10.9375 C6.1725 9.968125 5.595 8.99875 5 8 C4.67 9.65 4.34 11.3 4 13 C5.32 13.66 6.64 14.32 8 15 C4.625 15.625 4.625 15.625 1 16 C0.34 15.34 -0.32 14.68 -1 14 C-0.01 13.67 0.98 13.34 2 13 C2 9.37 2 5.74 2 2 C1.34 2 0.68 2 0 2 C0 1.34 0 0.68 0 0 Z " fill="#F4F6F5" transform="translate(205,22)"/>
<path d="M0 0 C2.31 0.33 4.62 0.66 7 1 C6.01 3.31 5.02 5.62 4 8 C4.66 8 5.32 8 6 8 C6.12375 7.21625 6.2475 6.4325 6.375 5.625 C7 3 7 3 9 1 C12.625 1.375 12.625 1.375 16 2 C15.814375 2.598125 15.62875 3.19625 15.4375 3.8125 C14.77906313 6.16408762 14.77906313 6.16408762 16 9 C15.01 10.485 15.01 10.485 14 12 C10.92078868 12.25660094 8.78863007 12.39431504 6 11 C6 10.34 6 9.68 6 9 C4.02 9.99 2.04 10.98 0 12 C-0.99 11.01 -1.98 10.02 -3 9 C-1.125 2.25 -1.125 2.25 0 0 Z M1 4 C0.67 5.65 0.34 7.3 0 9 C0.99 8.67 1.98 8.34 3 8 C2.34 6.68 1.68 5.36 1 4 Z M10 4 C9.67 5.65 9.34 7.3 9 9 C9.66 8.34 10.32 7.68 11 7 C10.67 6.01 10.34 5.02 10 4 Z " fill="#EAEDEB" transform="translate(269,57)"/>
<path d="M0 0 C3.5 0.5 3.5 0.5 5.375 2.25 C7.42524327 6.35048654 7.76830698 7.56881696 6.4375 12.1875 C4.5 15.5 4.5 15.5 1.625 16.75 C-1.5 16.5 -1.5 16.5 -4.375 14.5 C-7.00049695 10.79341606 -7.14804424 8.95530412 -6.5 4.5 C-4.89393218 0.81549148 -4.02265822 0.57466546 0 0 Z M-0.5 1.5 C-1.78612676 2.55978933 -1.78612676 2.55978933 -1.59765625 5.00390625 C-1.58605469 6.01324219 -1.57445312 7.02257812 -1.5625 8.0625 C-1.55347656 9.07441406 -1.54445313 10.08632813 -1.53515625 11.12890625 C-1.52355469 11.91136719 -1.51195312 12.69382812 -1.5 13.5 C-0.51 13.5 0.48 13.5 1.5 13.5 C3.08867866 11.91132134 2.70794039 10.25310484 2.75 8.0625 C2.77578125 7.25941406 2.8015625 6.45632812 2.828125 5.62890625 C2.71984375 4.92636719 2.6115625 4.22382813 2.5 3.5 C1.51 2.84 0.52 2.18 -0.5 1.5 Z " fill="#F7F8F7" transform="translate(266.5,21.5)"/>
<path d="M0 0 C0.91007813 0.00902344 1.82015625 0.01804687 2.7578125 0.02734375 C3.45648438 0.03894531 4.15515625 0.05054687 4.875 0.0625 C4.875 2.3725 4.875 4.6825 4.875 7.0625 C3.885 7.0625 2.895 7.0625 1.875 7.0625 C0.1875 4.5625 0.1875 4.5625 -1.125 2.0625 C-2.04192961 4.81328884 -2.23386083 6.42198913 -2.1875 9.25 C-2.166875 10.508125 -2.14625 11.76625 -2.125 13.0625 C-1.135 12.7325 -0.145 12.4025 0.875 12.0625 C1.205 11.0725 1.535 10.0825 1.875 9.0625 C2.865 9.3925 3.855 9.7225 4.875 10.0625 C4.215 12.0425 3.555 14.0225 2.875 16.0625 C-3.44119537 16.54836118 -3.44119537 16.54836118 -6.5 14.375 C-8.34977273 11.74263111 -8.97206812 10.27406956 -9.125 7.0625 C-8.3125 3.8125 -8.3125 3.8125 -7.125 1.0625 C-4.60024538 -0.19987731 -2.81299534 -0.03606404 0 0 Z " fill="#FBFBFB" transform="translate(131.125,21.9375)"/>
<path d="M0 0 C1.65 0.33 3.3 0.66 5 1 C5 1.66 5 2.32 5 3 C5.66 3 6.32 3 7 3 C7 2.34 7 1.68 7 1 C10.28976808 -0.09658936 11.71303767 0.20046862 15 1 C15.84454356 4.37817425 16.10844919 6.67465243 15 10 C14.01 10 13.02 10 12 10 C12 8.02 12 6.04 12 4 C11.34 5.98 10.68 7.96 10 10 C8.68 9.67 7.36 9.34 6 9 C6.66 7.68 7.32 6.36 8 5 C7.34 5 6.68 5 6 5 C5.54625 5.804375 5.0925 6.60875 4.625 7.4375 C3 10 3 10 1 11 C0.34 11 -0.32 11 -1 11 C-1.99 10.01 -2.98 9.02 -4 8 C-2.68 5.36 -1.36 2.72 0 0 Z M1 3 C0.67 4.65 0.34 6.3 0 8 C0.66 8 1.32 8 2 8 C2.33 6.35 2.66 4.7 3 3 C2.34 3 1.68 3 1 3 Z M14 6 C15 8 15 8 15 8 Z " fill="#F4F6F5" transform="translate(138,58)"/>
<path d="M0 0 C0.33 2.31 0.66 4.62 1 7 C0.67 7 0.34 7 0 7 C-0.33 27.46 -0.66 47.92 -1 69 C-1.33 69 -1.66 69 -2 69 C-2.33 47.22 -2.66 25.44 -3 3 C-8.94 3.495 -8.94 3.495 -15 4 C-15.99 4 -16.98 4 -18 4 C-15.51258499 0.95145096 -13.38725714 0.39351409 -9.5625 -0.25 C-8.61503906 -0.42015625 -7.66757812 -0.5903125 -6.69140625 -0.765625 C-4.12447401 -0.98916046 -2.42395153 -0.80225346 0 0 Z " fill="#83C6C2" transform="translate(30,7)"/>
<path d="M0 0 C3.3 0 6.6 0 10 0 C10 2.66666667 10 5.33333333 10 8 C10.99 9.485 10.99 9.485 12 11 C11.0625 13 11.0625 13 9 15 C5.97465051 15.36475845 3.03336186 15.22893297 0 15 C-1.13825019 11.58524944 -0.70549041 10.4490642 0 7 C0.03824623 4.66698014 0.04574284 2.33288492 0 0 Z M3 1 C3 1.99 3 2.98 3 4 C5.475 4.99 5.475 4.99 8 6 C6.6446674 3.46326712 6.6446674 3.46326712 5 1 C4.34 1 3.68 1 3 1 Z M1 8 C1.78130071 10.49552484 1.78130071 10.49552484 3 13 C3.99 13.33 4.98 13.66 6 14 C6.66 13.67 7.32 13.34 8 13 C8 12.34 8 11.68 8 11 C4.77885843 8.68407978 4.77885843 8.68407978 1 8 Z " fill="#FAFAFA" transform="translate(277,22)"/>
<path d="M0 0 C0.99 0 1.98 0 3 0 C3.33773437 0.91523438 3.67546875 1.83046875 4.0234375 2.7734375 C4.46945313 3.96195313 4.91546875 5.15046875 5.375 6.375 C5.81585938 7.55835938 6.25671875 8.74171875 6.7109375 9.9609375 C7.7950342 13.04493446 7.7950342 13.04493446 10 15 C6.53777385 16.06723961 3.35960734 16.10173486 -0.25 16.0625 C-1.32765625 16.05347656 -2.4053125 16.04445313 -3.515625 16.03515625 C-4.33546875 16.02355469 -5.1553125 16.01195313 -6 16 C-6.33 15.34 -6.66 14.68 -7 14 C-6.55011719 13.62230469 -6.10023438 13.24460937 -5.63671875 12.85546875 C-3.56424776 10.5060088 -2.82127918 8.26926656 -1.8125 5.3125 C-1.46832031 4.31863281 -1.12414062 3.32476563 -0.76953125 2.30078125 C-0.51558594 1.54152344 -0.26164063 0.78226563 0 0 Z M0 7 C0 10 0 10 0 10 Z M-1 11 C-1.33 11.99 -1.66 12.98 -2 14 C-0.68 14 0.64 14 2 14 C1.67 13.01 1.34 12.02 1 11 C0.34 11 -0.32 11 -1 11 Z " fill="#FAFAF9" transform="translate(235,22)"/>
<path d="M0 0 C0.33 1.98 0.66 3.96 1 6 C0.01 6.33 -0.98 6.66 -2 7 C-2.4021875 6.0409375 -2.4021875 6.0409375 -2.8125 5.0625 C-3.88667752 2.66868314 -3.88667752 2.66868314 -7 2 C-6.67 5.63 -6.34 9.26 -6 13 C-2.60085025 11.86695008 -1.94745549 10.87481525 0 8 C0.33 8.66 0.66 9.32 1 10 C0 12.625 0 12.625 -2 15 C-5.5 15.5625 -5.5 15.5625 -9 15 C-11.86938363 12.68598095 -11.98178389 11.17001703 -12.375 7.5 C-12 4 -12 4 -11.0625 1.5625 C-7.71893043 -0.97050725 -4.04720363 -0.30544933 0 0 Z " fill="#FCFCFC" transform="translate(257,22)"/>
<path d="M0 0 C-0.33 1.98 -0.66 3.96 -1 6 C-1.99 6 -2.98 6 -4 6 C-4.66 4.68 -5.32 3.36 -6 2 C-8.29379749 5.44069624 -9 6.72290301 -9 11 C-7.05925139 10.72382467 -7.05925139 10.72382467 -5 10 C-4.34 9.01 -3.68 8.02 -3 7 C-2.25 8.75 -2.25 8.75 -2 11 C-3.5625 13.3125 -3.5625 13.3125 -6 15 C-9.1875 14.875 -9.1875 14.875 -12 14 C-13.43304064 11.13391871 -13.30644155 9.18699217 -13 6 C-10.11529027 0.53965658 -10.11529027 0.53965658 -7.0625 -0.9375 C-4.57701834 -1.01281763 -2.40664288 -0.60166072 0 0 Z " fill="#F8F9F8" transform="translate(136,54)"/>
<path d="M0 0 C2.97 0 5.94 0 9 0 C9.66 1.32 10.32 2.64 11 4 C9.29374499 6.78388975 8.52373261 7.85384206 5.3125 8.75 C4.549375 8.8325 3.78625 8.915 3 9 C2.67 9.99 2.34 10.98 2 12 C2.66 12.66 3.32 13.32 4 14 C1.36 14 -1.28 14 -4 14 C-3.34 13.34 -2.68 12.68 -2 12 C-1.83312552 9.41645782 -1.83312552 9.41645782 -2 7 C-1.34 7 -0.68 7 0 7 C0 4.69 0 2.38 0 0 Z M5 1 C4.34 2.65 3.68 4.3 3 6 C4.32 5.67 5.64 5.34 7 5 C6.67 3.68 6.34 2.36 6 1 C5.67 1 5.34 1 5 1 Z " fill="#F1F2F1" transform="translate(222,54)"/>
<path d="M0 0 C1.98 0 3.96 0 6 0 C5.01 0.495 5.01 0.495 4 1 C3.31270746 3.11846285 3.31270746 3.11846285 2.875 5.5625 C2.62363281 6.80193359 2.62363281 6.80193359 2.3671875 8.06640625 C2.24601563 8.70449219 2.12484375 9.34257813 2 10 C2.66 10 3.32 10 4 10 C3.6875 11.9375 3.6875 11.9375 3 14 C-0.76624671 15.25541557 -2.37188934 14.37061958 -6 13 C-5.125 7.25 -5.125 7.25 -4 5 C-3.01 5 -2.02 5 -1 5 C-0.67 3.35 -0.34 1.7 0 0 Z M-2 7 C-2.33 8.65 -2.66 10.3 -3 12 C-1.45833358 10.62514468 -1.45833358 10.62514468 0 9 C0 8.34 0 7.68 0 7 C-0.66 7 -1.32 7 -2 7 Z " fill="#F1F4F3" transform="translate(179,54)"/>
<path d="M0 0 C1.32 0 2.64 0 4 0 C4 1.32 4 2.64 4 4 C4.66 2.68 5.32 1.36 6 0 C6.66 0 7.32 0 8 0 C7.979375 0.94875 7.95875 1.8975 7.9375 2.875 C7.77448174 5.90666283 7.77448174 5.90666283 9 8 C8.01 8.99 7.02 9.98 6 11 C5.01 10.67 4.02 10.34 3 10 C2.01 10.495 2.01 10.495 1 11 C0.34 10.67 -0.32 10.34 -1 10 C-0.67 8.35 -0.34 6.7 0 5 C-0.66 5 -1.32 5 -2 5 C-1.34 3.35 -0.68 1.7 0 0 Z M2 6 C3 8 3 8 3 8 Z " fill="#F4F5F4" transform="translate(234,58)"/>
<path d="M0 0 C0.33 0 0.66 0 1 0 C1.02529825 6.37206172 1.04284496 12.74411054 1.05493164 19.11621094 C1.05996891 21.28516117 1.06679891 23.454108 1.07543945 25.62304688 C1.08753151 28.73568563 1.09323428 31.8482796 1.09765625 34.9609375 C1.10281754 35.934935 1.10797882 36.9089325 1.11329651 37.91244507 C1.11340981 39.26361923 1.11340981 39.26361923 1.11352539 40.64208984 C1.115746 41.43706879 1.11796661 42.23204773 1.12025452 43.05111694 C1 45 1 45 0 47 C-4.31472218 48.10376614 -7.67530994 47.92014682 -12 47 C-13.423125 46.7215625 -13.423125 46.7215625 -14.875 46.4375 C-15.57625 46.293125 -16.2775 46.14875 -17 46 C-17 45.67 -17 45.34 -17 45 C-9.08 44.505 -9.08 44.505 -1 44 C-0.67 29.48 -0.34 14.96 0 0 Z " fill="#E9E9E9" transform="translate(54,32)"/>
<path d="M0 0 C0 4 0 4 -1 6 C-0.34 6 0.32 6 1 6 C0.67 7.32 0.34 8.64 0 10 C-2.97 10 -5.94 10 -9 10 C-8.51171875 3.9453125 -8.51171875 3.9453125 -8 2 C-4.77208445 -0.1519437 -3.71599191 -0.20086443 0 0 Z M-4 2 C-4.99 3.485 -4.99 3.485 -6 5 C-5.67 5.99 -5.34 6.98 -5 8 C-4.34 7.01 -3.68 6.02 -3 5 C-3.33 4.01 -3.66 3.02 -4 2 Z " fill="#F2F5F4" transform="translate(211,58)"/>
<path d="M0 0 C1.65 0 3.3 0 5 0 C5.12375 0.639375 5.2475 1.27875 5.375 1.9375 C5.684375 2.9584375 5.684375 2.9584375 6 4 C6.66 4.33 7.32 4.66 8 5 C7.25 11.75 7.25 11.75 5 14 C2.375 14.125 2.375 14.125 0 14 C-0.08214133 9.81079233 0.18123964 6.09380181 1 2 C0.67 1.34 0.34 0.68 0 0 Z M4 6 C3.34 7.98 2.68 9.96 2 12 C2.99 11.67 3.98 11.34 5 11 C5 9.35 5 7.7 5 6 C4.67 6 4.34 6 4 6 Z " fill="#F1F2F1" transform="translate(244,54)"/>
<path d="M0 0 C-0.33 1.98 -0.66 3.96 -1 6 C-0.34 6 0.32 6 1 6 C0.67 7.32 0.34 8.64 0 10 C-2.97 10 -5.94 10 -9 10 C-8.67 7.36 -8.34 4.72 -8 2 C-2.25 0 -2.25 0 0 0 Z M-4 2 C-4.99 3.485 -4.99 3.485 -6 5 C-5.67 5.99 -5.34 6.98 -5 8 C-4.34 7.01 -3.68 6.02 -3 5 C-3.33 4.01 -3.66 3.02 -4 2 Z " fill="#F4F7F6" transform="translate(171,58)"/>
<path d="M0 0 C1.32 0.33 2.64 0.66 4 1 C3.773125 2.093125 3.54625 3.18625 3.3125 4.3125 C3.1578125 6.1378125 3.1578125 6.1378125 3 8 C4.43750191 9.68798827 4.43750191 9.68798827 6 11 C5.6875 13.1875 5.6875 13.1875 5 15 C4.34 15 3.68 15 3 15 C2.67 13.02 2.34 11.04 2 9 C1.01 9.33 0.02 9.66 -1 10 C-2.15837626 5.94568308 -1.83691257 3.78187881 0 0 Z " fill="#F1F3F1" transform="translate(163,22)"/>
<path d="M0 0 C0.33 2.31 0.66 4.62 1 7 C-0.32 6.34 -1.64 5.68 -3 5 C-3 4.34 -3 3.68 -3 3 C-3.83144531 3.0721875 -4.66289062 3.144375 -5.51953125 3.21875 C-7.14955078 3.35796875 -7.14955078 3.35796875 -8.8125 3.5 C-10.43091797 3.63921875 -10.43091797 3.63921875 -12.08203125 3.78125 C-15 4 -15 4 -18 4 C-15.51258499 0.95145096 -13.38725714 0.39351409 -9.5625 -0.25 C-8.61503906 -0.42015625 -7.66757812 -0.5903125 -6.69140625 -0.765625 C-4.12447401 -0.98916046 -2.42395153 -0.80225346 0 0 Z " fill="#8FC7C6" transform="translate(30,7)"/>
<path d="M0 0 C2.31 0.33 4.62 0.66 7 1 C6.814375 1.598125 6.62875 2.19625 6.4375 2.8125 C5.77906313 5.16408762 5.77906313 5.16408762 7 8 C6.01 9.485 6.01 9.485 5 11 C4.34 11 3.68 11 3 11 C2.34 9.02 1.68 7.04 1 5 C0.01 5.33 -0.98 5.66 -2 6 C-1.34 4.02 -0.68 2.04 0 0 Z " fill="#E9EDEB" transform="translate(278,58)"/>
<path d="M0 0 C1.98 0 3.96 0 6 0 C5.84402344 0.62648437 5.68804687 1.25296875 5.52734375 1.8984375 C5.33269531 2.71570312 5.13804687 3.53296875 4.9375 4.375 C4.74027344 5.18710937 4.54304688 5.99921875 4.33984375 6.8359375 C3.77890681 9.04161284 3.77890681 9.04161284 5 11 C3.68 12.32 2.36 13.64 1 15 C-1 12 -1 12 -0.72265625 9.58984375 C-0.50480469 8.71457031 -0.28695312 7.83929688 -0.0625 6.9375 C1.00353183 3.36923411 1.00353183 3.36923411 0 0 Z " fill="#F1F3F3" transform="translate(254,54)"/>
<path d="M0 0 C0.66 0.33 1.32 0.66 2 1 C1.67 2.32 1.34 3.64 1 5 C1.66 5.33 2.32 5.66 3 6 C2.484375 6.4125 1.96875 6.825 1.4375 7.25 C0.7259375 8.11625 0.7259375 8.11625 0 9 C0.22757731 11.16299211 0.22757731 11.16299211 1 13 C-0.98 13.99 -0.98 13.99 -3 15 C-4.27797059 11.16608823 -3.91106065 7.87006105 -3 4 C-1.4375 1.5 -1.4375 1.5 0 0 Z " fill="#F2F4EF" transform="translate(159,54)"/>
<path d="M0 0 C1.65 0.33 3.3 0.66 5 1 C5.125 4.375 5.125 4.375 5 8 C3 10 3 10 0.375 10.125 C-0.40875 10.08375 -1.1925 10.0425 -2 10 C-2.6875 8.375 -2.6875 8.375 -3 6 C-1.5625 2.75 -1.5625 2.75 0 0 Z M1 3 C0.67 4.65 0.34 6.3 0 8 C0.66 8 1.32 8 2 8 C2.33 6.35 2.66 4.7 3 3 C2.34 3 1.68 3 1 3 Z " fill="#ECEEED" transform="translate(187,58)"/>
<path d="M0 0 C2.46800047 1.15173355 4.04783565 2.04783565 6 4 C5.34 2.68 4.68 1.36 4 0 C6.64 0 9.28 0 12 0 C11.67 0.66 11.34 1.32 11 2 C10.34 2 9.68 2 9 2 C9 5.3 9 8.6 9 12 C4.16545537 8.77697025 2.24783891 5.17379682 0 0 Z " fill="#E9EBEA" transform="translate(209,22)"/>
<path d="M0 0 C2.64 0 5.28 0 8 0 C8 1.65 8 3.3 8 5 C7.34 5 6.68 5 6 5 C5.34 4.01 4.68 3.02 4 2 C3.34 2 2.68 2 2 2 C2 2.66 2 3.32 2 4 C2.99 4 3.98 4 5 4 C5 6.31 5 8.62 5 11 C4.34 11 3.68 11 3 11 C2.34 10.34 1.68 9.68 1 9 C0.67 9 0.34 9 0 9 C-1.125 2.25 -1.125 2.25 0 0 Z " fill="#ECEDED" transform="translate(195,22)"/>
<path d="M0 0 C0.33 0.66 0.66 1.32 1 2 C2.32 1.67 3.64 1.34 5 1 C5 2.32 5 3.64 5 5 C4.01 5 3.02 5 2 5 C1.67 6.98 1.34 8.96 1 11 C0.01 11.33 -0.98 11.66 -2 12 C-1.67 10.02 -1.34 8.04 -1 6 C-1.66 5.67 -2.32 5.34 -3 5 C-2.01 3.35 -1.02 1.7 0 0 Z " fill="#EAECEB" transform="translate(196,57)"/>
<path d="M0 0 C0.99 0.33 1.98 0.66 3 1 C4.25 7.625 4.25 7.625 2 11 C1.34 11 0.68 11 0 11 C-1.7578125 5.04296875 -1.7578125 5.04296875 -2 3 C-1.34 2.01 -0.68 1.02 0 0 Z " fill="#F7F9F8" transform="translate(261,58)"/>
<path d="M0 0 C1.98 0 3.96 0 6 0 C6.99 3.3 7.98 6.6 9 10 C7.68 10.33 6.36 10.66 5 11 C4.01 8.03 3.02 5.06 2 2 C1.34 2 0.68 2 0 2 C0 1.34 0 0.68 0 0 Z " fill="#F7F9F9" transform="translate(170,22)"/>
<path d="M0 0 C0.99 0 1.98 0 3 0 C3 0.99 3 1.98 3 3 C3.66 3.33 4.32 3.66 5 4 C4.67 6.64 4.34 9.28 4 12 C5.32 12.66 6.64 13.32 8 14 C4.625 14.625 4.625 14.625 1 15 C0.34 14.34 -0.32 13.68 -1 13 C-0.01 12.67 0.98 12.34 2 12 C2 8.37 2 4.74 2 1 C1.34 0.67 0.68 0.34 0 0 Z " fill="#E1E5E4" transform="translate(205,23)"/>
<path d="M0 0 C0.66 0.66 1.32 1.32 2 2 C1.01 4.64 0.02 7.28 -1 10 C0.98 9.34 2.96 8.68 5 8 C4.34 9.32 3.68 10.64 3 12 C0.36 12 -2.28 12 -5 12 C-5.33 11.34 -5.66 10.68 -6 10 C-5.566875 9.649375 -5.13375 9.29875 -4.6875 8.9375 C-2.31641544 6.21514365 -1.3283165 3.35241784 0 0 Z " fill="#EDEEED" transform="translate(234,26)"/>
<path d="M0 0 C1.65 0 3.3 0 5 0 C5 0.66 5 1.32 5 2 C10.94 1.67 16.88 1.34 23 1 C23 1.66 23 2.32 23 3 C15.08 3 7.16 3 -1 3 C-0.67 2.01 -0.34 1.02 0 0 Z " fill="#CDD2D1" transform="translate(11,79)"/>
<path d="M0 0 C0.21785156 0.64710937 0.43570312 1.29421875 0.66015625 1.9609375 C1.83623896 4.26984963 1.83623896 4.26984963 4.49609375 4.5390625 C5.46675781 4.56742187 6.43742187 4.59578125 7.4375 4.625 C12.7113764 4.80758427 12.7113764 4.80758427 16 7 C13.54137599 7.05383848 11.0839245 7.09359038 8.625 7.125 C7.57699219 7.15013672 7.57699219 7.15013672 6.5078125 7.17578125 C4.67102514 7.19344267 2.83398037 7.10303261 1 7 C0.34 6.34 -0.32 5.68 -1 5 C-0.625 2.375 -0.625 2.375 0 0 Z " fill="#87CAC6" transform="translate(11,70)"/>
<path d="M0 0 C2.97 0 5.94 0 9 0 C9.33 1.98 9.66 3.96 10 6 C9.01 6.33 8.02 6.66 7 7 C6.34 5.68 5.68 4.36 5 3 C3.02 3 1.04 3 -1 3 C-0.67 2.01 -0.34 1.02 0 0 Z " fill="#F2F2F2" transform="translate(248,22)"/>
<path d="M0 0 C2.625 0.9375 2.625 0.9375 5 2 C5 2.33 5 2.66 5 3 C-4.24 3 -13.48 3 -23 3 C-23 2.67 -23 2.34 -23 2 C-22.37432129 1.97494385 -21.74864258 1.9498877 -21.10400391 1.92407227 C-18.27745381 1.80824727 -15.45124831 1.68546015 -12.625 1.5625 C-11.14773437 1.50352539 -11.14773437 1.50352539 -9.640625 1.44335938 C-8.22910156 1.38051758 -8.22910156 1.38051758 -6.7890625 1.31640625 C-5.91975098 1.27974854 -5.05043945 1.24309082 -4.15478516 1.20532227 C-1.9516738 1.12598456 -1.9516738 1.12598456 0 0 Z " fill="#EDEEEC" transform="translate(79,79)"/>
<path d="M0 0 C0 1.32 0 2.64 0 4 C-0.66 4.66 -1.32 5.32 -2 6 C-2.66 5.01 -3.32 4.02 -4 3 C-4.99 4.485 -4.99 4.485 -6 6 C-6.66 6 -7.32 6 -8 6 C-7.625 3.5625 -7.625 3.5625 -7 1 C-4.53721199 -0.231394 -2.7204945 -0.07159196 0 0 Z " fill="#E8E9E8" transform="translate(211,58)"/>
<path d="M0 0 C3.3 0 6.6 0 10 0 C10 1.98 10 3.96 10 6 C7 5 7 5 5 2 C3.35 2.66 1.7 3.32 0 4 C0 2.68 0 1.36 0 0 Z " fill="#F0F0F0" transform="translate(277,22)"/>
<path d="M0 0 C0 3 0 3 -1 5 C0.32 5 1.64 5 3 5 C3 5.66 3 6.32 3 7 C3.66 7.33 4.32 7.66 5 8 C3.35 8.66 1.7 9.32 0 10 C-0.99 9.01 -1.98 8.02 -3 7 C-1.125 1.125 -1.125 1.125 0 0 Z " fill="#F3F6F5" transform="translate(277,59)"/>
<path d="M0 0 C-0.33 1.65 -0.66 3.3 -1 5 C-1.66 5 -2.32 5 -3 5 C-3.33 4.34 -3.66 3.68 -4 3 C-4.99 4.32 -5.98 5.64 -7 7 C-7.33 5.35 -7.66 3.7 -8 2 C-2.25 0 -2.25 0 0 0 Z " fill="#ECEDED" transform="translate(171,58)"/>
<path d="M0 0 C0.66 0.66 1.32 1.32 2 2 C0.9375 4.5 0.9375 4.5 -1 7 C-4.5625 7.4375 -4.5625 7.4375 -8 7 C-8.66 6.34 -9.32 5.68 -10 5 C-9.67 4.01 -9.34 3.02 -9 2 C-8.67 2.66 -8.34 3.32 -8 4 C-5.47266765 4.65555119 -5.47266765 4.65555119 -3 5 C-2.01 3.35 -1.02 1.7 0 0 Z " fill="#F2F4F2" transform="translate(256,30)"/>
<path d="M0 0 C1.98 0 3.96 0 6 0 C5.01 0.495 5.01 0.495 4 1 C3.61866701 2.9914056 3.28674418 4.99279077 3 7 C2.67 7.66 2.34 8.32 2 9 C1.34 9 0.68 9 0 9 C0 6.03 0 3.06 0 0 Z " fill="#EBEDEC" transform="translate(179,54)"/>
<path d="M0 0 C1.65 0 3.3 0 5 0 C5.66 1.32 6.32 2.64 7 4 C6.01 5.485 6.01 5.485 5 7 C4.01 6.67 3.02 6.34 2 6 C2 4.68 2 3.36 2 2 C1.34 1.34 0.68 0.68 0 0 Z " fill="#EAEBE9" transform="translate(226,54)"/>
<path d="M0 0 C0.99 0.33 1.98 0.66 3 1 C2.34 2.98 1.68 4.96 1 7 C-1.31 6.67 -3.62 6.34 -6 6 C-5.67 5.34 -5.34 4.68 -5 4 C-4.34 3.855625 -3.68 3.71125 -3 3.5625 C-2.01 3.2840625 -2.01 3.2840625 -1 3 C-0.67 2.01 -0.34 1.02 0 0 Z " fill="#EFF1F0" transform="translate(201,31)"/>
<path d="M0 0 C0.33 2.31 0.66 4.62 1 7 C0.34 6.34 -0.32 5.68 -1 5 C-1 4.01 -1 3.02 -1 2 C-2.98 2 -4.96 2 -7 2 C-7 1.34 -7 0.68 -7 0 C-3.86650268 -1.04449911 -3.01031744 -0.93423645 0 0 Z " fill="#8FACAB" transform="translate(30,7)"/>
<path d="M0 0 C0.99 0 1.98 0 3 0 C2.67 0.66 2.34 1.32 2 2 C-5.42857143 2.28571429 -5.42857143 2.28571429 -9 0 C-5.93652871 -1.53173564 -3.31441515 -0.52332871 0 0 Z " fill="#FFFFFE" transform="translate(49,79)"/>
<path d="M0 0 C0.66 0 1.32 0 2 0 C2.28875 0.78375 2.5775 1.5675 2.875 2.375 C3.84912254 5.09671632 3.84912254 5.09671632 6 7 C3.36 7 0.72 7 -2 7 C-1.34 6.34 -0.68 5.68 0 5 C0.16687448 2.41645782 0.16687448 2.41645782 0 0 Z " fill="#F9FAFA" transform="translate(220,61)"/>
<path d="M0 0 C0.99 0.33 1.98 0.66 3 1 C3.6875 3.0625 3.6875 3.0625 4 5 C2.02 5 0.04 5 -2 5 C-1.34 3.35 -0.68 1.7 0 0 Z " fill="#EDEFEF" transform="translate(261,58)"/>
<path d="M0 0 C0.33 0 0.66 0 1 0 C1 1.98 1 3.96 1 6 C-0.98 6.99 -0.98 6.99 -3 8 C-3 5.69 -3 3.38 -3 1 C-2.01 1.33 -1.02 1.66 0 2 C0 1.34 0 0.68 0 0 Z " fill="#FCFDFC" transform="translate(264,27)"/>
<path d="M0 0 C2.475 0.495 2.475 0.495 5 1 C4.34 2.98 3.68 4.96 3 7 C2.34 7 1.68 7 1 7 C1.33 5.02 1.66 3.04 2 1 C1.34 0.67 0.68 0.34 0 0 Z " fill="#F1F2F1" transform="translate(193,62)"/>
<path d="M0 0 C0.66 0 1.32 0 2 0 C2 2.31 2 4.62 2 7 C0.02 7.99 0.02 7.99 -2 9 C-1.34 6.03 -0.68 3.06 0 0 Z " fill="#E0E4E2" transform="translate(190,59)"/>
<path d="M0 0 C1.98 0.99 3.96 1.98 6 3 C2.77208445 5.1519437 1.71599191 5.20086443 -2 5 C-2 4.01 -2 3.02 -2 2 C-1.34 2 -0.68 2 0 2 C0 1.34 0 0.68 0 0 Z " fill="#F7F8F7" transform="translate(207,33)"/>
<path d="M0 0 C2.31 0 4.62 0 7 0 C7 0.99 7 1.98 7 3 C6.4225 2.79375 5.845 2.5875 5.25 2.375 C2.48032433 1.91338739 1.35438733 2.57055055 -1 4 C-0.67 2.68 -0.34 1.36 0 0 Z " fill="#EEEFEF" transform="translate(263,22)"/>
<path d="M0 0 C0.99 0.33 1.98 0.66 3 1 C2.67 2.98 2.34 4.96 2 7 C1.01 6.67 0.02 6.34 -1 6 C-0.67 4.02 -0.34 2.04 0 0 Z " fill="#F1F2F2" transform="translate(290,22)"/>
<path d="M0 0 C3.11954738 0.33724836 4.6209965 0.6209965 6.875 2.875 C7.24625 3.57625 7.6175 4.2775 8 5 C7.67 5.99 7.34 6.98 7 8 C5 6.1875 5 6.1875 3 4 C3 3.01 3 2.02 3 1 C2.01 0.67 1.02 0.34 0 0 Z " fill="#FBFDFD" transform="translate(205,22)"/>
<path d="M0 0 C0.33 0 0.66 0 1 0 C1 1.98 1 3.96 1 6 C-0.98 6 -2.96 6 -5 6 C-5 5.34 -5 4.68 -5 4 C-3.68 4 -2.36 4 -1 4 C-0.67 2.68 -0.34 1.36 0 0 Z " fill="#799794" transform="translate(29,74)"/>
<path d="M0 0 C0.33 0.66 0.66 1.32 1 2 C-0.98 3.32 -2.96 4.64 -5 6 C-5 4.68 -5 3.36 -5 2 C-3.35 1.34 -1.7 0.68 0 0 Z " fill="#F1F2F2" transform="translate(131,53)"/>
<path d="M0 0 C0.66 0 1.32 0 2 0 C2.66 2.31 3.32 4.62 4 7 C2.0625 6.25 2.0625 6.25 0 5 C-0.8125 2.9375 -0.8125 2.9375 -1 1 C-0.67 0.67 -0.34 0.34 0 0 Z " fill="#F9ECF8" transform="translate(163,31)"/>
<path d="M0 0 C2.31 0.33 4.62 0.66 7 1 C6.34 2.65 5.68 4.3 5 6 C4.34 6 3.68 6 3 6 C2.67 5.01 2.34 4.02 2 3 C1.34 2.67 0.68 2.34 0 2 C0 1.34 0 0.68 0 0 Z " fill="#F6FAF8" transform="translate(269,57)"/>
<path d="M0 0 C0.99 0.33 1.98 0.66 3 1 C2.34 2.32 1.68 3.64 1 5 C0.34 3.68 -0.32 2.36 -1 1 C-0.67 0.67 -0.34 0.34 0 0 Z " fill="#EFF1F1" transform="translate(263,54)"/>
<path d="M0 0 C0.33 0.66 0.66 1.32 1 2 C0.34 2.66 -0.32 3.32 -1 4 C-0.67 2.68 -0.34 1.36 0 0 Z " fill="#FFFFFF" transform="translate(267,56)"/>
<path d="M0 0 C2 1 2 1 2 1 Z " fill="#FFFFFF" transform="translate(143,58)"/>
<path d="" fill="#FBFBFB" transform="translate(0,0)"/>
<path d="" fill="#FFFFFF" transform="translate(0,0)"/>
<path d="" fill="#FFFFFF" transform="translate(0,0)"/>
<path d="" fill="#FFFFFF" transform="translate(0,0)"/>
<path d="" fill="#00FFFF" transform="translate(0,0)"/>
<path d="" fill="#FFFFFF" transform="translate(0,0)"/>
<path d="" fill="#FFFFFF" transform="translate(0,0)"/>
<path d="" fill="#FFFFFF" transform="translate(0,0)"/>
<path d="" fill="#FFFFFF" transform="translate(0,0)"/>
<path d="" fill="#FFFFFF" transform="translate(0,0)"/>
<path d="" fill="#FFFFFF" transform="translate(0,0)"/>
<path d="" fill="#FFFFFF" transform="translate(0,0)"/>
<path d="" fill="#FFFFFF" transform="translate(0,0)"/>
<path d="" fill="#FFFFFF" transform="translate(0,0)"/>
<path d="" fill="#FFFFFF" transform="translate(0,0)"/>
<path d="" fill="#FFFFFF" transform="translate(0,0)"/>
<path d="" fill="#FFFFFF" transform="translate(0,0)"/>
<path d="" fill="#FFFFFF" transform="translate(0,0)"/>
<path d="" fill="#FFFFFF" transform="translate(0,0)"/>
<path d="" fill="#FFFFFF" transform="translate(0,0)"/>
<path d="" fill="#FFFFFF" transform="translate(0,0)"/>
<path d="" fill="#FFFFFF" transform="translate(0,0)"/>
<path d="" fill="#FFFFFF" transform="translate(0,0)"/>
<path d="" fill="#FFFFFF" transform="translate(0,0)"/>
<path d="" fill="#FFFFFF" transform="translate(0,0)"/>
<path d="" fill="#FFFFFF" transform="translate(0,0)"/>
<path d="" fill="#FFFFFF" transform="translate(0,0)"/>
<path d="" fill="#FFFFFF" transform="translate(0,0)"/>
<path d="" fill="#FFFFFF" transform="translate(0,0)"/>
<path d="" fill="#FFFFFF" transform="translate(0,0)"/>
<path d="" fill="#FFFFFF" transform="translate(0,0)"/>
<path d="" fill="#FFFFFF" transform="translate(0,0)"/>
<path d="" fill="#FFFFFF" transform="translate(0,0)"/>
<path d="" fill="#FFFFFF" transform="translate(0,0)"/>
<path d="" fill="#FFFFFF" transform="translate(0,0)"/>
<path d="" fill="#FFFFFF" transform="translate(0,0)"/>
<path d="" fill="#FFFFFF" transform="translate(0,0)"/>
<path d="" fill="#FFFFFF" transform="translate(0,0)"/>
<path d="" fill="#FFFFFF" transform="translate(0,0)"/>
<path d="" fill="#FFFFFF" transform="translate(0,0)"/>
<path d="" fill="#FFFFFF" transform="translate(0,0)"/>
<path d="" fill="#FFFFFF" transform="translate(0,0)"/>
<path d="" fill="#FFFFFF" transform="translate(0,0)"/>
<path d="" fill="#FFFFFF" transform="translate(0,0)"/>
<path d="" fill="#FFFFFF" transform="translate(0,0)"/>
<path d="" fill="#FFFFFF" transform="translate(0,0)"/>
<path d="" fill="#FFFFFF" transform="translate(0,0)"/>
<path d="" fill="#FFFFFF" transform="translate(0,0)"/>
<path d="" fill="#FFFFFF" transform="translate(0,0)"/>
<path d="" fill="#FFFFFF" transform="translate(0,0)"/>
<path d="" fill="#FFFFFF" transform="translate(0,0)"/>
<path d="" fill="#FFFFFF" transform="translate(0,0)"/>
<path d="" fill="#FFFFFF" transform="translate(0,0)"/>
<path d="" fill="#FFFFFF" transform="translate(0,0)"/>
<path d="" fill="#FFFFFF" transform="translate(0,0)"/>
<path d="" fill="#FFFFFF" transform="translate(0,0)"/>
<path d="" fill="#FFFFFF" transform="translate(0,0)"/>
<path d="" fill="#FFFFFF" transform="translate(0,0)"/>
<path d="" fill="#FFFFFF" transform="translate(0,0)"/>
<path d="" fill="#FFFFFF" transform="translate(0,0)"/>
<path d="" fill="#FFFFFF" transform="translate(0,0)"/>
<path d="" fill="#FFFFFF" transform="translate(0,0)"/>
<path d="" fill="#FFFFFF" transform="translate(0,0)"/>
<path d="" fill="#FFFFFF" transform="translate(0,0)"/>
<path d="" fill="#FFFFFF" transform="translate(0,0)"/>
<path d="" fill="#FFFFFF" transform="translate(0,0)"/>
<path d="" fill="#FFFFFF" transform="translate(0,0)"/>
<path d="" fill="#FFFFFF" transform="translate(0,0)"/>
<path d="" fill="#FFFFFF" transform="translate(0,0)"/>
<path d="" fill="#FFFFFF" transform="translate(0,0)"/>
<path d="" fill="#FFFFFF" transform="translate(0,0)"/>
<path d="" fill="#FFFFFF" transform="translate(0,0)"/>
<path d="" fill="#FFFFFF" transform="translate(0,0)"/>
<path d="" fill="#FFFFFF" transform="translate(0,0)"/>
<path d="" fill="#FFFFFF" transform="translate(0,0)"/>
<path d="" fill="#FFFFFF" transform="translate(0,0)"/>
<path d="" fill="#FFFFFF" transform="translate(0,0)"/>
</svg>
